<svg xmlns="http://www.w3.org/2000/svg" xmlns:xlink="http://www.w3.org/1999/xlink" width="240" height="240" viewBox="0 0 240 240"><defs><style>.a{opacity:0.8;}.b{fill:rgba(255,255,255,0);}.c{opacity:0.331;fill:url(#a);}.d{opacity:0.779;}.e,.l,.p{fill:#9da1a6;}.e{opacity:0.599;}.f,.m,.q{opacity:0.576;}.f{fill:url(#b);}.g{fill:url(#c);}.h{opacity:0.7;fill:url(#d);}.i{fill:url(#e);}.j{fill:url(#f);}.k{fill:url(#g);}.l{opacity:0.67;}.m{fill:url(#h);}.n{fill:url(#i);}.o{opacity:0.897;}.p{opacity:0.597;}.q{fill:url(#j);}.r{fill:url(#k);}.s{fill:url(#l);}.t{fill:url(#m);}.u{fill:url(#n);}.v{fill:url(#o);}.w{fill:url(#p);}.x{fill:url(#q);}.y{fill:url(#r);}.z{fill:url(#s);}.aa{fill:url(#t);}.ab{fill:url(#u);}.ac{fill:none;stroke:#cbcdce;stroke-linecap:round;stroke-width:0.6px;}.ad{fill:url(#v);}</style><linearGradient id="a" x1="1.209" y1="0.5" x2="-0.25" y2="0.5" gradientUnits="objectBoundingBox"><stop offset="0" stop-color="#c8cacd" stop-opacity="0"/><stop offset="1" stop-color="#b2b5b8"/></linearGradient><linearGradient id="b" x1="0.505" y1="0.096" x2="0.495" y2="1" gradientUnits="objectBoundingBox"><stop offset="0" stop-color="#f4f5f5"/><stop offset="1" stop-color="#b3b6b9"/></linearGradient><linearGradient id="c" x1="0.498" y1="0.075" x2="0.503" y2="0.998" gradientUnits="objectBoundingBox"><stop offset="0" stop-color="#f3f4f4"/><stop offset="1" stop-color="#b3b6b9"/></linearGradient><linearGradient id="d" x1="0.5" y1="1" x2="0.5" y2="-0.442" gradientUnits="objectBoundingBox"><stop offset="0" stop-color="#f8f8f9"/><stop offset="1" stop-color="#e2e3e4"/></linearGradient><linearGradient id="e" x1="0.5" y1="0.996" x2="0.5" y2="0.029" gradientUnits="objectBoundingBox"><stop offset="0" stop-color="#f4f5f5" stop-opacity="0"/><stop offset="1" stop-color="#eeeff0"/></linearGradient><linearGradient id="f" x1="0.5" y1="0.997" x2="0.5" y2="0.029" xlink:href="#e"/><linearGradient id="g" x1="0.5" y1="1" x2="0.5" y2="0.001" gradientUnits="objectBoundingBox"><stop offset="0.003" stop-color="#f4f5f5" stop-opacity="0"/><stop offset="0.98" stop-color="#f0f1f2"/></linearGradient><linearGradient id="h" x1="0.509" y1="0.095" x2="0.493" y2="1.001" xlink:href="#b"/><linearGradient id="i" x1="0.496" y1="0.077" x2="0.505" y2="0.999" xlink:href="#c"/><linearGradient id="j" x1="0.508" y1="0.099" x2="0.492" y2="1.005" xlink:href="#b"/><linearGradient id="k" x1="0.497" y1="0.075" x2="0.506" y2="0.998" xlink:href="#c"/><linearGradient id="l" x1="0.5" y1="1.149" x2="0.5" y2="0.065" gradientUnits="objectBoundingBox"><stop offset="0" stop-color="#fff"/><stop offset="1" stop-color="#cfd1d3"/></linearGradient><linearGradient id="m" x1="0.5" y1="1.149" x2="0.5" y2="0.065" gradientUnits="objectBoundingBox"><stop offset="0" stop-color="#fff" stop-opacity="0.098"/><stop offset="1" stop-color="#fff"/></linearGradient><linearGradient id="n" x1="0.5" y1="1" x2="0.5" gradientUnits="objectBoundingBox"><stop offset="0" stop-color="#bec1c4"/><stop offset="0.112" stop-color="#bfc2c5"/><stop offset="0.92" stop-color="#e7e8ea"/><stop offset="1" stop-color="#eeeff1"/></linearGradient><linearGradient id="o" x1="0.5" y1="1" x2="0.5" gradientUnits="objectBoundingBox"><stop offset="0" stop-color="#d3d5d7"/><stop offset="0.088" stop-color="#d5d6d9"/><stop offset="1" stop-color="#eff0f1"/></linearGradient><linearGradient id="p" x1="1" y1="0.5" x2="0" y2="0.5" gradientUnits="objectBoundingBox"><stop offset="0" stop-color="#e8e9ea"/><stop offset="0.088" stop-color="#e2e3e5"/><stop offset="1" stop-color="#cecfd2"/></linearGradient><linearGradient id="q" x1="0.063" y1="1.026" x2="0.931" y2="-0.028" gradientUnits="objectBoundingBox"><stop offset="0" stop-color="#bec1c4"/><stop offset="0.112" stop-color="#c0c2c5"/><stop offset="0.92" stop-color="#dfe0e2"/><stop offset="1" stop-color="#eeeff0"/></linearGradient><linearGradient id="r" x1="1" y1="0.5" x2="0" y2="0.5" gradientUnits="objectBoundingBox"><stop offset="0" stop-color="#ebeced"/><stop offset="0.088" stop-color="#e6e8e9"/><stop offset="1" stop-color="#cacbce"/></linearGradient><linearGradient id="s" x1="0.5" y1="1" x2="0.5" gradientUnits="objectBoundingBox"><stop offset="0" stop-color="#eaebed"/><stop offset="0.088" stop-color="#e2e2e4"/><stop offset="1" stop-color="#d4d6d8"/></linearGradient><linearGradient id="t" x1="0.5" y1="1" x2="0.5" gradientUnits="objectBoundingBox"><stop offset="0" stop-color="#eef0f1"/><stop offset="0.088" stop-color="#e4e6e6"/><stop offset="1" stop-color="#d2d3d6"/></linearGradient><linearGradient id="u" x1="1" y1="0.5" x2="0" y2="0.5" gradientUnits="objectBoundingBox"><stop offset="0" stop-color="#ebecee"/><stop offset="0.088" stop-color="#e8e9ea"/><stop offset="1" stop-color="#d6d8da"/></linearGradient><linearGradient id="v" x1="0.248" y1="0.313" x2="1.449" y2="0.803" gradientUnits="objectBoundingBox"><stop offset="0" stop-color="#f0f1f2"/><stop offset="1" stop-color="#cfd2d3"/></linearGradient></defs><g class="a" transform="translate(-1.115 -0.115)"><g transform="translate(0.699 -0.301)"><g transform="translate(0 0)"><rect class="b" width="240" height="240" transform="translate(0.416 0.416)"/><ellipse class="c" cx="33.029" cy="3.336" rx="33.029" ry="3.336" transform="translate(87.388 193.08)"/><g class="d" transform="translate(37.491 130.64)"><ellipse class="e" cx="3.87" cy="1.201" rx="3.87" ry="1.201" transform="translate(6.699 17.074)"/><path class="f" d="M30.539,28.668c1.068.467,6.272-7.673,7.006-9.809s-.067-4.537-1.8-5.271-3.737.4-4.471,2.6S29.4,28.2,30.539,28.668Z" transform="translate(-23.373 -10.393)"/><path class="g" d="M7.366,18.275C8.7,17.875,8.5,6.332,7.833,3.729s-2.869-4.2-5-3.6S-.441,3.329.16,5.931,6.032,18.676,7.366,18.275Z" transform="translate(0 0)"/></g><path class="h" d="M132.643,157.522a3.248,3.248,0,0,1-.8-.067,5.049,5.049,0,0,1-1,.067,9.326,9.326,0,0,1-9.342-9.342,9.228,9.228,0,0,1,9.342-9.275,14.087,14.087,0,0,1,1.735.133,12.642,12.642,0,0,1,23.821,5.872h7.473a6.306,6.306,0,1,1,0,12.611Z" transform="translate(-94.165 -102.564)"/><g transform="translate(24.332 146.839)"><path class="i" d="M0,60.154C10.409,44.873,20.418,37.2,29.893,37.2s20.351,7.673,32.562,22.954Z" transform="translate(0 -28.926)"/><path class="j" d="M166.2,31.228Q182.715,0,201.565,0q18.817,0,68.461,31.228Z" transform="translate(-129.234 0)"/><path class="k" d="M578.472,55.022C567,38.741,556.119,30.6,545.977,30.6S519.42,38.741,496.8,55.022Z" transform="translate(-386.302 -23.794)"/></g><g transform="translate(172.089 119.795)"><ellipse class="l" cx="3.003" cy="0.934" rx="3.003" ry="0.934" transform="translate(5.392 11.954)"/><path class="m" d="M24.864,19.837c.867.334,4.8-5.472,5.4-7.006a2.89,2.89,0,0,0-1.335-3.737,2.813,2.813,0,0,0-3.47,1.868C24.864,12.431,24.063,19.5,24.864,19.837Z" transform="translate(-19.071 -6.949)"/><path class="n" d="M5.659,12.888c1.068-.267.867-8.407.4-10.209a3.4,3.4,0,0,0-3.87-2.6A3.263,3.263,0,0,0,.12,4.147C.587,5.949,4.658,13.155,5.659,12.888Z" transform="translate(0 0)"/></g><g class="o" transform="translate(177.517 175.635)"><ellipse class="p" cx="3.937" cy="1.201" rx="3.937" ry="1.201" transform="translate(8.583 20.433)"/><path class="q" d="M41.57,33.586c1.4.534,8.141-9.275,9.141-11.877s-.067-5.472-2.335-6.339-4.871.534-5.872,3.136S40.169,33.052,41.57,33.586Z" transform="translate(-31.853 -11.752)"/><path class="r" d="M9.717,21.9c1.8-.467,1.535-14.279.667-17.349S6.514-.585,3.712.149-.625,4.019.242,7.155,7.916,22.368,9.717,21.9Z" transform="translate(0 0)"/></g><circle class="s" cx="3.069" cy="3.069" r="3.069" transform="translate(117.479 133.428)"/><circle class="t" cx="3.069" cy="3.069" r="3.069" transform="translate(117.479 134.028)"/><g transform="translate(42.145 75.653)"><path class="u" d="M233.05,339.293l53.166-15.083v41.57l-44.682-14.422Z" transform="translate(-218.062 -324.21)"/><path class="v" d="M395.55,324.21l65.794,13.951-10.371,52.5L395.55,375.677Z" transform="translate(-327.397 -324.21)"/><path class="w" d="M233.05,370.31l58.819,15.272v69.374L233.05,436.67Z" transform="translate(-218.062 -355.227)"/><path class="x" d="M472.971,366.85v68.624L412.83,452.628V383.254Z" transform="translate(-339.023 -352.9)"/><path class="y" d="M239.839,412.633l-52.6-19.513,14.988-22.81,58.819,15.272Z" transform="translate(-187.24 -355.227)"/><path class="z" d="M187.24,424.528v2.64l54.154,21.066,19.653-25.922V416.99l-21.207,27.051Z" transform="translate(-187.24 -386.635)"/><path class="aa" d="M494.554,421.42v3.628L433.9,449.086,412.83,422.313V416.99Z" transform="translate(-339.023 -386.635)"/><path class="ab" d="M472.971,366.85l21.583,20.834-59.1,22.621L412.83,383.254Z" transform="translate(-339.023 -352.9)"/></g><g transform="translate(86.52 7.776)"><path class="ac" d="M34.824,15.6q-20,1.8-31.173-4.773C-2.242,7.209-.461,0,5.147,0s9.009,3.555,9.009,9.079A17.878,17.878,0,0,1,5.147,23.868" transform="translate(21.369 13.607) rotate(-23)"/><path class="ad" d="M29.681,4.679q-7.239-9.358-17.887,0C8.04,8.2,5.563,13.826,0,13.826Q26.17,22.95,29.681,4.679Z" transform="translate(0 41.745) rotate(-14)"/><path class="ac" d="M8.924,0Q7.853,2.085,0,4.171" transform="translate(21.647 41.065) rotate(-14)"/><path class="ad" d="M25,3.941q-6.1-7.882-15.065,0C6.771,6.9,4.686,11.645,0,11.645Q22.042,19.329,25,3.941Z" transform="translate(88.688 22.144) rotate(-10)"/><path class="ac" d="M8.923,0Q7.853,2.086,0,4.171" transform="translate(106.264 21.647) rotate(-10)"/></g></g></g></g></svg>